<?xml version="1.0" encoding="UTF-8" standalone="no"?>
<svg
   xmlns:dc="http://purl.org/dc/elements/1.1/"
   xmlns:cc="http://creativecommons.org/ns#"
   xmlns:rdf="http://www.w3.org/1999/02/22-rdf-syntax-ns#"
   xmlns:svg="http://www.w3.org/2000/svg"
   xmlns="http://www.w3.org/2000/svg"
   viewBox="0 0 1122.52 793.70135"
   height="180"
   width="280"
   xml:space="preserve"
   id="svg2"
   version="1.1"><metadata
     id="metadata8"><rdf:RDF><cc:Work
         rdf:about=""><dc:format>image/svg+xml</dc:format><dc:type
           rdf:resource="http://purl.org/dc/dcmitype/StillImage" /></cc:Work></rdf:RDF></metadata><defs
     id="defs6"><clipPath
       id="clipPath18"
       clipPathUnits="userSpaceOnUse"><path
         id="path16"
         d="M 0,0 H 841.89 V 595.276 H 0 Z" /></clipPath><clipPath
       id="clipPath46"
       clipPathUnits="userSpaceOnUse"><path
         id="path44"
         d="M 0,0 H 841.89 V 595.276 H 0 Z" /></clipPath></defs><g
     transform="matrix(1.3333333,0,0,-1.3333333,0,793.70133)"
     id="g10"><g
       id="g12"><g
         clip-path="url(#clipPath18)"
         id="g14"><g
           transform="translate(30.019,430.6783)"
           id="g20"><path
             id="path22"
             style="fill:#a7a5a6;fill-opacity:1;fill-rule:nonzero;stroke:none"
             d="m 0,0 h 73.486 c 29.092,0 51.72,-13.36 51.72,-42.453 0,-11.206 -5.388,-22.628 -15.302,-28.66 13.576,-7.113 20.904,-16.595 20.904,-33.617 0,-7.976 -3.664,-25.645 -22.412,-37.283 -13.576,-7.541 -25.86,-8.622 -48.272,-8.835 l -60.124,0 z m 33.832,-30.169 v -27.797 h 40.299 c 9.267,0 17.025,5.601 17.025,14.65 0,9.485 -8.836,13.147 -17.67,13.147 z m 0,-57.321 v -33.403 h 39.654 c 14.006,0 23.058,6.246 23.058,17.454 0,10.13 -8.404,15.731 -22.628,15.949 z" /></g><g
           transform="translate(254.5745,277.0282)"
           id="g24"><path
             id="path26"
             style="fill:#a7a5a6;fill-opacity:1;fill-rule:nonzero;stroke:none"
             d="m 0,0 c -50.212,0 -78.227,33.834 -78.227,78.444 0,45.9 31.248,78.223 78.872,78.223 47.626,0 78.227,-32.11 78.227,-77.578 C 78.872,37.068 52.151,0 0,0 m 0.645,126.284 c -29.308,0 -44.824,-20.043 -44.824,-47.84 0,-25.862 13.579,-48.059 44.824,-48.059 31.032,0 44.179,22.197 44.179,48.704 -0.216,28.661 -16.809,47.195 -44.179,47.195" /></g><g
           transform="translate(462.1038,376.1603)"
           id="g28"><path
             id="path30"
             style="fill:#a7a5a6;fill-opacity:1;fill-rule:nonzero;stroke:none"
             d="m 0,0 c -4.74,16.591 -17.456,27.366 -40.083,27.366 -26.721,-0.432 -41.16,-22.196 -41.16,-46.978 0,-28.878 14.439,-49.348 41.16,-49.348 15.731,0 33.618,6.247 39.867,31.677 l 32.756,-10.13 c -8.62,-29.952 -31.461,-51.934 -72.623,-51.934 -50.857,0.431 -75.424,37.928 -75.424,78.659 0,40.081 24.351,78.009 76.071,78.223 C 6.68,57.966 24.352,33.398 32.325,12.929 Z" /></g><g
           transform="translate(626.7493,276.5955)"
           id="g32"><path
             id="path34"
             style="fill:#a7a5a6;fill-opacity:1;fill-rule:nonzero;stroke:none"
             d="m 0,0 c -12.929,4.311 -17.885,9.053 -24.565,15.95 -9.052,9.481 -30.387,42.667 -30.387,42.667 H -79.518 V 3.235 h -33.834 v 150.848 h 68.099 c 36.849,0 59.477,-17.022 59.045,-47.194 C 13.362,83.183 -4.093,69.392 -18.964,63.576 -9.697,49.999 0,37.715 3.88,33.621 7.759,29.524 17.456,22.414 24.783,20.043 Z m -79.518,89.434 h 37.281 c 12.284,0 21.765,7.541 21.765,17.455 0,10.561 -8.189,16.811 -22.412,16.811 h -36.634 z" /></g></g></g><g
       transform="translate(811.8707,279.8301)"
       id="g36"><path
         id="path38"
         style="fill:#a7a5a6;fill-opacity:1;fill-rule:nonzero;stroke:none"
         d="m 0,0 h -37.066 l -10.345,25.862 h -62.71 L -120.25,0 h -36.849 l 63.141,150.848 h 31.032 z m -98.267,55.599 h 39.22 l -19.611,50.643 z" /></g><g
       id="g40"><g
         clip-path="url(#clipPath46)"
         id="g42"><g
           transform="translate(380.9156,201.2795)"
           id="g48"><path
             id="path50"
             style="fill:#0e597e;fill-opacity:1;fill-rule:nonzero;stroke:none"
             d="M 0,0 C 0,-21.928 17.776,-39.705 39.705,-39.705 61.634,-39.705 79.41,-21.928 79.41,0 79.41,21.929 61.634,39.706 39.705,39.706 17.776,39.706 0,21.929 0,0" /></g><g
           transform="translate(498.0971,201.2795)"
           id="g52"><path
             id="path54"
             style="fill:#215c2b;fill-opacity:1;fill-rule:nonzero;stroke:none"
             d="M 0,0 C 0,-21.928 17.776,-39.705 39.705,-39.705 61.634,-39.705 79.41,-21.928 79.41,0 79.41,21.929 61.634,39.706 39.705,39.706 17.776,39.706 0,21.929 0,0" /></g><g
           transform="translate(615.2792,201.2795)"
           id="g56"><path
             id="path58"
             style="fill:#7b1520;fill-opacity:1;fill-rule:nonzero;stroke:none"
             d="m 0,0 c 0,-21.928 17.777,-39.705 39.705,-39.705 21.929,0 39.704,17.777 39.704,39.705 0,21.929 -17.775,39.706 -39.704,39.706 C 17.777,39.706 0,21.929 0,0" /></g><g
           transform="translate(732.4607,201.2795)"
           id="g60"><path
             id="path62"
             style="fill:#fbc508;fill-opacity:1;fill-rule:nonzero;stroke:none"
             d="M 0,0 C 0,-21.928 17.776,-39.705 39.705,-39.705 61.634,-39.705 79.41,-21.928 79.41,0 79.41,21.929 61.634,39.706 39.705,39.706 17.776,39.706 0,21.929 0,0" /></g></g></g></g></svg>
